<?xml version="1.0" encoding="utf-8"?>
<!-- Generator: Adobe Illustrator 19.2.1, SVG Export Plug-In . SVG Version: 6.00 Build 0)  -->
<svg version="1.1" id="Camada_1" xmlns="http://www.w3.org/2000/svg" xmlns:xlink="http://www.w3.org/1999/xlink" x="0px" y="0px"
	 viewBox="0 0 30 30" style="enable-background:new 0 0 30 30;" xml:space="preserve">
<style type="text/css">
	.st0{fill:#FFFFFF;}
</style>
<g>
	<g>
		<g>
			<path class="st0" d="M28,0.3H2.1c-1,0-1.8,0.8-1.8,1.8v25.9c0,1,0.8,1.8,1.8,1.8H28c1,0,1.8-0.8,1.8-1.8V2.1
				C29.8,1.1,29,0.3,28,0.3z M27.4,27.3H2.8V12.2h24.6L27.4,27.3L27.4,27.3z M27.4,9.7H2.8v-7h24.6L27.4,9.7L27.4,9.7z"/>
			<path class="st0" d="M22.3,7.4H23c0.7,0,1.2-0.5,1.2-1.2C24.2,5.5,23.7,5,23,5h-0.7c-0.7,0-1.2,0.5-1.2,1.2
				C21.1,6.9,21.6,7.4,22.3,7.4z"/>
			<path class="st0" d="M16.7,7.4h0.7c0.7,0,1.2-0.5,1.2-1.2C18.6,5.5,18,5,17.4,5h-0.7c-0.7,0-1.2,0.5-1.2,1.2
				C15.4,6.9,16,7.4,16.7,7.4z"/>
			<path class="st0" d="M12.5,25.2c0.8,0.4,1.4-0.1,1.6-0.6l4.2-8.8c0.3-0.6,0-1.3-0.6-1.6c-0.6-0.3-1.3,0-1.6,0.6l-4.2,8.8
				C11.6,24.2,11.8,25,12.5,25.2z"/>
			<path class="st0" d="M19,17.1l3,2.6l-3,2.6c-0.4,0.4-0.4,1,0,1.4c0.6,0.5,1.4,0.2,1.6,0l3.8-3.3c0.4-0.4,0.4-1,0-1.4l-3.8-3.3
				c-0.4-0.4-1.2-0.4-1.6,0C18.6,16.1,18.6,16.7,19,17.1L19,17.1z"/>
			<path class="st0" d="M5.7,20.4l3.8,3.3c0.4,0.4,1.2,0.4,1.6,0c0.4-0.4,0.4-1,0-1.4l-3-2.6l3-2.6c0.4-0.4,0.4-1,0-1.4
				c-0.6-0.5-1.4-0.2-1.6,0L5.7,19C5.2,19.4,5.2,20,5.7,20.4L5.7,20.4z"/>
		</g>
	</g>
</g>
</svg>
