<?xml version="1.0" encoding="utf-8"?>
<!-- Generator: Adobe Illustrator 19.2.1, SVG Export Plug-In . SVG Version: 6.00 Build 0)  -->
<svg version="1.1" id="Camada_1" xmlns="http://www.w3.org/2000/svg" xmlns:xlink="http://www.w3.org/1999/xlink" x="0px" y="0px"
	 viewBox="0 0 30 30" style="enable-background:new 0 0 30 30;" xml:space="preserve">
<style type="text/css">
	.st0{fill:#FFFFFF;}
</style>
<g>
	<g id="Layer_1_65_">
		<g>
			<path class="st0" d="M29.9,12.9c-0.1-0.2-0.3-0.4-0.6-0.4h-1.8C26.3,6.1,20.7,1.3,14,1.3C6.4,1.3,0.3,7.4,0.3,15
				S6.4,28.7,14,28.7c4.9,0,9.4-2.6,11.9-6.9c0.3-0.6,0.1-1.4-0.5-1.7c-0.6-0.3-1.4-0.1-1.7,0.5c-2,3.5-5.7,5.6-9.7,5.6
				c-6.2,0-11.2-5-11.2-11.2c0-6.2,5-11.2,11.2-11.2c5.3,0,9.8,3.7,10.9,8.7h-1.8c-0.2,0-0.5,0.1-0.6,0.4c-0.1,0.2-0.1,0.5,0.1,0.7
				l3.1,3.7c0.1,0.1,0.3,0.2,0.5,0.2c0.2,0,0.4-0.1,0.5-0.2l3.1-3.7C29.9,13.3,30,13.1,29.9,12.9z"/>
			<path class="st0" d="M14,4.4c-0.7,0-1.2,0.6-1.2,1.2v7.6c-0.6,0.4-0.9,1-0.9,1.8c0,1.2,1,2.2,2.2,2.2c0.3,0,0.6-0.1,0.9-0.2
				l4.3,2.5c0.2,0.1,0.4,0.2,0.6,0.2c0.4,0,0.8-0.2,1.1-0.6c0.3-0.6,0.1-1.4-0.5-1.7l-4.3-2.5c-0.1-0.7-0.4-1.2-0.9-1.6V5.7
				C15.2,5,14.7,4.4,14,4.4z M14,15.9c-0.5,0-0.9-0.4-0.9-0.9c0-0.5,0.4-0.9,0.9-0.9c0.5,0,0.9,0.4,0.9,0.9
				C14.9,15.5,14.5,15.9,14,15.9z"/>
		</g>
	</g>
</g>
</svg>
