<?xml version="1.0" encoding="utf-8"?>
<!-- Generator: Adobe Illustrator 19.2.1, SVG Export Plug-In . SVG Version: 6.00 Build 0)  -->
<svg version="1.1" id="Camada_1" xmlns="http://www.w3.org/2000/svg" xmlns:xlink="http://www.w3.org/1999/xlink" x="0px" y="0px"
	 viewBox="0 0 30 30" style="enable-background:new 0 0 30 30;" xml:space="preserve">
<style type="text/css">
	.st0{fill:#FFFFFF;}
</style>
<g>
	<g>
		<polygon class="st0" points="6.5,20 4,27.2 8.6,25.7 11.2,29.8 13.8,22.5 11.3,20.4 		"/>
		<polygon class="st0" points="23.9,20 19.1,20.4 16.7,22.5 19.3,29.8 21.9,25.7 26.5,27.2 		"/>
		<path class="st0" d="M22.8,18.5l0.3-4.3l2.8-3.2l-2.8-3.2l-0.3-4.3l-4.3-0.3l-3.2-2.8L12,3.1L7.7,3.4L7.4,7.7l-2.8,3.2l2.8,3.2
			l0.3,4.3l4.3,0.3l3.3,2.8l3.2-2.8L22.8,18.5z M15.2,16.8c-3.3,0-6-2.7-6-6c0-3.3,2.7-6,6-6c3.3,0,6,2.7,6,6
			C21.1,14.2,18.5,16.8,15.2,16.8z"/>
		<polygon class="st0" points="13.2,8.3 13.5,9.5 14.7,8.9 14.7,8.9 14.7,14.2 16.3,14.2 16.3,7.5 15,7.5 		"/>
	</g>
</g>
</svg>
